<?xml version="1.0" encoding="utf-8"?>
<!-- Generator: Adobe Illustrator 24.1.1, SVG Export Plug-In . SVG Version: 6.00 Build 0)  -->
<svg version="1.1" id="Layer_1" xmlns="http://www.w3.org/2000/svg" xmlns:xlink="http://www.w3.org/1999/xlink" x="0px" y="0px"
	 viewBox="0 0 1190.55 841.89" style="enable-background:new 0 0 1190.55 841.89;" xml:space="preserve">
<style type="text/css">
	.st0{fill:#FEFEFE;}
	.st1{fill:none;stroke:#FEFEFE;stroke-width:4.0663;stroke-miterlimit:22.9256;}
	.st2{fill-rule:evenodd;clip-rule:evenodd;fill:#FEFEFE;}
	.st3{fill-rule:evenodd;clip-rule:evenodd;fill:#2595A2;}
	.st4{fill:none;stroke:#2595A2;stroke-width:2.0344;stroke-miterlimit:22.9256;}
	.st5{fill-rule:evenodd;clip-rule:evenodd;fill:#FFCD2C;}
	.st6{fill:none;stroke:#FFCD2C;stroke-width:2.0331;stroke-miterlimit:22.9256;}
	.st7{fill:none;stroke:#2595A2;stroke-width:2.0335;stroke-linecap:round;stroke-miterlimit:22.9256;}
	.st8{fill:none;stroke:#2595A2;stroke-width:2.0331;stroke-miterlimit:22.9256;}
	.st9{fill:none;stroke:#FFCD2C;stroke-width:2.033;stroke-miterlimit:22.9256;}
	.st10{fill-rule:evenodd;clip-rule:evenodd;fill:#D3D1C1;}
	.st11{fill-rule:evenodd;clip-rule:evenodd;fill:#894129;}
</style>
<g>
	<path class="st0" d="M178.73,545v-69.36h19.92c6.89,0,12.26,1.56,16.14,4.67c3.87,3.11,5.81,7.78,5.81,14.01
		c0,3.24-0.84,6.11-2.52,8.62c-1.68,2.51-4.02,4.35-7.02,5.53c4.18,0.67,7.41,2.58,9.66,5.74c2.26,3.16,3.39,6.88,3.39,11.17
		c0,6.38-1.9,11.25-5.71,14.6s-9.05,5.03-15.74,5.03H178.73z M188.77,505.7h11.42c3.23-0.1,5.76-1.1,7.59-3.03
		c1.83-1.92,2.74-4.64,2.74-8.17c0-3.81-1.01-6.67-3.01-8.58c-2.01-1.91-4.96-2.86-8.85-2.86h-9.88V505.7z M188.77,512.65v25.01
		h13.89c3.62,0,6.43-1.06,8.4-3.17c1.98-2.11,2.97-5.14,2.97-9.07c0-3.81-0.96-6.86-2.89-9.15c-1.93-2.29-4.64-3.49-8.13-3.62h-0.54
		H188.77z"/>
	<path class="st0" d="M281.68,475.64v45.87c0,7.69-2.24,13.69-6.72,18.01c-4.48,4.32-10.3,6.48-17.45,6.48
		c-7.02,0-12.73-2.17-17.13-6.5c-4.4-4.33-6.6-10.33-6.6-17.98v-45.87h10.03v45.87c0,5.37,1.26,9.57,3.78,12.6
		c2.52,3.03,5.82,4.55,9.91,4.55c4.22,0,7.62-1.51,10.21-4.53c2.59-3.02,3.88-7.22,3.88-12.62v-45.87H281.68z"/>
	<path class="st0" d="M294.53,545v-69.36h20.41c7.78,0,14.13,2.78,19.05,8.34c4.93,5.56,7.39,12.7,7.39,21.44v9.86
		c0,8.76-2.46,15.91-7.39,21.44c-4.93,5.53-11.28,8.29-19.05,8.29H294.53z M304.56,483.07v54.59h10.38c4.94,0,8.9-2.09,11.86-6.26
		c2.97-4.17,4.45-9.55,4.45-16.12v-9.96c0-6.48-1.48-11.81-4.45-15.98c-2.97-4.18-6.92-6.26-11.86-6.26H304.56z"/>
	<path class="st0" d="M399.31,535.95c-1.71,2.64-4.44,4.97-8.18,7c-3.74,2.03-8.56,3.05-14.46,3.05c-7.51,0-13.57-2.21-18.16-6.62
		c-4.6-4.41-6.89-10.7-6.89-18.86v-20.58c0-8.03,2.22-14.26,6.67-18.67c4.45-4.41,10.36-6.62,17.74-6.62
		c7.28,0,12.9,1.81,16.85,5.43c3.95,3.62,5.86,8.57,5.73,14.86l-0.1,0.29h-9.44c0-4.16-1.1-7.39-3.29-9.69
		c-2.19-2.3-5.38-3.45-9.56-3.45c-4.51,0-8.06,1.52-10.65,4.55c-2.59,3.03-3.88,7.44-3.88,13.22v20.67c0,5.91,1.34,10.41,4.03,13.5
		c2.69,3.1,6.33,4.64,10.95,4.64c3.39,0,6.1-0.51,8.13-1.52c2.03-1.02,3.5-2.25,4.42-3.71v-16.15h-13.25v-7.05h23.33V535.95z"/>
	<path class="st0" d="M423.52,545h-10.03v-69.36h10.03V545z"/>
	<path class="st0" d="M472.65,512.8h-24.42v24.87H477V545h-38.8v-69.36h38.55v7.43h-28.52v22.34h24.42V512.8z"/>
	<path class="st0" d="M519.9,527.56c0-3.18-0.94-5.79-2.82-7.84c-1.88-2.05-5.19-3.91-9.93-5.6c-6.75-2.03-11.94-4.65-15.57-7.86
		c-3.63-3.21-5.44-7.48-5.44-12.81c0-5.46,2-9.96,6-13.5s9.13-5.31,15.4-5.31c6.66,0,11.99,1.97,16.01,5.91
		c4.02,3.94,5.96,8.88,5.83,14.82l-0.1,0.29h-9.64c0-4.06-1.12-7.35-3.36-9.86c-2.24-2.51-5.19-3.76-8.85-3.76
		c-3.56,0-6.32,1.08-8.28,3.24c-1.96,2.16-2.94,4.86-2.94,8.1c0,3.02,1.04,5.51,3.11,7.48c2.08,1.97,5.57,3.83,10.48,5.57
		c6.56,2.06,11.55,4.76,14.98,8.1c3.43,3.33,5.14,7.65,5.14,12.96c0,5.65-2.02,10.16-6.05,13.5c-4.04,3.35-9.33,5.03-15.89,5.03
		c-6.33,0-11.83-1.81-16.51-5.43c-4.68-3.62-6.94-8.81-6.77-15.58l0.1-0.29h9.69c0,4.7,1.29,8.21,3.88,10.53
		c2.59,2.32,5.79,3.48,9.61,3.48c3.72,0,6.64-1.01,8.75-3.02C518.84,533.67,519.9,530.96,519.9,527.56z"/>
</g>
<g>
	<path class="st0" d="M178.73,623.23v-68.97h22.86c9.17,0,16.74,2.81,22.74,8.43c5.99,5.62,8.99,12.84,8.99,21.65v8.86
		c0,8.81-3,16.02-8.99,21.63c-5.99,5.61-13.57,8.41-22.74,8.41H178.73z M184.91,559.09v59.36h16.69c7.42,0,13.53-2.38,18.33-7.15
		c4.81-4.77,7.21-10.8,7.21-18.1v-9c0-7.2-2.41-13.18-7.24-17.95c-4.82-4.77-10.93-7.15-18.31-7.15H184.91z"/>
	<path class="st0" d="M289.5,589.84h-33.63v28.61h38.88v4.78h-45.06v-68.97h44.8v4.83h-38.62v25.91h33.63V589.84z"/>
	<path class="st0" d="M350.11,606.46c0-3.54-1.53-6.46-4.58-8.76c-3.06-2.3-8.24-4.47-15.55-6.49c-8-2.02-14.08-4.54-18.26-7.56
		c-4.17-3.02-6.26-7.11-6.26-12.29c0-5.27,2.33-9.61,7-13c4.67-3.39,10.63-5.09,17.87-5.09c7.62,0,13.75,1.92,18.38,5.75
		c4.63,3.84,6.88,8.71,6.75,14.61l-0.1,0.28h-5.77c0-4.55-1.79-8.32-5.38-11.32c-3.59-3-8.21-4.5-13.88-4.5
		c-5.84,0-10.41,1.27-13.72,3.81c-3.31,2.54-4.97,5.66-4.97,9.36c0,3.5,1.5,6.39,4.51,8.64c3,2.26,8.3,4.37,15.89,6.32
		c7.9,2.12,13.92,4.72,18.08,7.82c4.15,3.1,6.23,7.2,6.23,12.32c0,5.37-2.43,9.69-7.29,12.96c-4.86,3.27-10.98,4.9-18.36,4.9
		c-7.38,0-13.82-1.73-19.31-5.19c-5.49-3.46-8.15-8.5-7.98-15.13l0.1-0.28h5.72c0,5.34,2.18,9.31,6.54,11.91
		c4.36,2.61,9.34,3.91,14.93,3.91c5.73,0,10.4-1.21,14.01-3.62C348.31,613.41,350.11,610.29,350.11,606.46z"/>
	<path class="st0" d="M379.26,623.23h-6.18v-68.97h6.18V623.23z"/>
	<path class="st0" d="M453.31,613.95c-1.65,2.5-4.69,4.83-9.14,7.01c-4.45,2.18-10.05,3.27-16.81,3.27c-8.62,0-15.67-2.73-21.17-8.2
		c-5.49-5.46-8.24-12.54-8.24-21.22v-12.65c0-8.53,2.66-15.47,7.98-20.84c5.32-5.37,12.21-8.05,20.65-8.05
		c8.14,0,14.6,1.97,19.39,5.92c4.79,3.95,7.11,8.97,6.98,15.06l-0.15,0.28h-5.66c0-4.77-1.79-8.7-5.36-11.8
		c-3.57-3.09-8.63-4.64-15.19-4.64c-6.73,0-12.15,2.24-16.27,6.73s-6.18,10.23-6.18,17.24v12.74c0,7.2,2.15,13.11,6.44,17.72
		c4.29,4.61,9.89,6.92,16.79,6.92c5.25,0,9.54-0.73,12.87-2.18c3.33-1.45,5.65-3.14,6.95-5.07v-17.67H427v-4.83h26.31V613.95z"/>
	<path class="st0" d="M527.88,623.23h-6.18l-42.59-59.02l-0.31,0.05v58.98h-6.18v-68.97h6.18l42.59,58.88l0.31-0.05v-58.83h6.18
		V623.23z"/>
</g>
<line class="st1" x1="69.15" y1="634.71" x2="529.85" y2="634.71"/>
<rect x="69.15" y="459.49" class="st2" width="90.95" height="175.22"/>
<path class="st3" d="M147.73,501.47c3.62,3.77,2.13,9.72-3.31,13.3c-5.44,3.57-12.79,3.41-16.4-0.36c-3.62-3.77-2.13-9.72,3.31-13.3
	C136.77,497.54,144.11,497.7,147.73,501.47"/>
<g>
	<defs>
		<path id="SVGID_1_" d="M147.73,501.47c3.62,3.77,2.13,9.72-3.31,13.3c-5.44,3.57-12.79,3.41-16.4-0.36
			c-3.62-3.77-2.13-9.72,3.31-13.3C136.77,497.54,144.11,497.7,147.73,501.47"/>
	</defs>
	<clipPath id="SVGID_2_">
		<use xlink:href="#SVGID_1_"  style="overflow:visible;"/>
	</clipPath>
</g>
<path class="st4" d="M147.73,501.47c3.62,3.77,2.13,9.72-3.31,13.3c-5.44,3.57-12.79,3.41-16.4-0.36c-3.62-3.77-2.13-9.72,3.31-13.3
	C136.77,497.54,144.12,497.7,147.73,501.47z"/>
<path class="st5" d="M128.45,516.49l-32.8,0.11l5.38-32.47c8.57-26.67,34.29-23.26,44.74-9.64
	C156.4,488.34,152.08,509.63,128.45,516.49"/>
<g>
	<defs>
		<path id="SVGID_3_" d="M128.45,516.49l-32.8,0.11l5.38-32.47c8.57-26.67,34.29-23.26,44.74-9.64
			C156.4,488.34,152.08,509.63,128.45,516.49"/>
	</defs>
	<clipPath id="SVGID_4_">
		<use xlink:href="#SVGID_3_"  style="overflow:visible;"/>
	</clipPath>
</g>
<path class="st6" d="M128.45,516.49l-32.8,0.11l5.38-32.47c8.57-26.67,34.29-23.26,44.74-9.64
	C156.4,488.34,152.08,509.63,128.45,516.49z"/>
<line class="st7" x1="69.18" y1="660.26" x2="74.31" y2="632.41"/>
<path class="st3" d="M74.2,633.01l20.73-112.55h29.95c32.52,6.26,27.7,40.57,23.07,58.92c-4.79,18.99-22.09,49.57-52.47,52.97
	L74.2,633.01z"/>
<g>
	<defs>
		<path id="SVGID_5_" d="M74.2,633.01l20.73-112.55h29.95c32.52,6.26,27.7,40.57,23.07,58.92c-4.79,18.99-22.09,49.57-52.47,52.97
			L74.2,633.01z"/>
	</defs>
	<clipPath id="SVGID_6_">
		<use xlink:href="#SVGID_5_"  style="overflow:visible;"/>
	</clipPath>
</g>
<path class="st8" d="M74.2,633.01l20.73-112.55h29.95c32.52,6.26,27.7,40.57,23.07,58.92c-4.79,18.99-22.09,49.57-52.47,52.97
	L74.2,633.01z"/>
<path class="st5" d="M94.25,619.19l14.6-78.65l8.95,0.05c28.83,6.97,7.57,76.5-19.95,78.48L94.25,619.19z"/>
<g>
	<defs>
		<path id="SVGID_7_" d="M94.25,619.19l14.6-78.65l8.95,0.05c28.83,6.97,7.57,76.5-19.95,78.48L94.25,619.19z"/>
	</defs>
	<clipPath id="SVGID_8_">
		<use xlink:href="#SVGID_7_"  style="overflow:visible;"/>
	</clipPath>
</g>
<path class="st9" d="M94.25,619.18l14.6-78.65l8.95,0.05c28.83,6.97,7.57,76.5-19.95,78.48L94.25,619.18z"/>
<path class="st10" d="M136.53,491.59c2.47,0,4.47,2.02,4.47,4.51c0,2.49-2,4.51-4.47,4.51c-2.47,0-4.47-2.02-4.47-4.51
	C132.06,493.61,134.06,491.59,136.53,491.59"/>
<path class="st11" d="M136.48,494.04c1.32-0.08,2.41,0.78,2.44,1.92c0.03,1.14-1.02,2.12-2.33,2.2c-1.32,0.08-2.41-0.78-2.44-1.92
	C134.12,495.1,135.16,494.11,136.48,494.04"/>
</svg>
