<svg xmlns="http://www.w3.org/2000/svg" width="468.831" height="110.722" viewBox="57.066 363.078 468.831 110.722"><path d="M202.778 451.908h12.802a.78.78 0 0 0 .772-.779v-23.693a.77.77 0 0 1 .764-.779h29.375a.772.772 0 0 0 .734-.574l-.036-11.486a.78.78 0 0 0-.735-.984H217.13a.771.771 0 0 1-.778-.78v-12.324a.771.771 0 0 1 .764-.779h33.586a.785.785 0 0 0 .734-.595v-11.494a.77.77 0 0 0-.734-.955h-47.924a.77.77 0 0 0-.771.771v63.673a.777.777 0 0 0 .771.778zm79.532-33.542v-17.954a.786.786 0 0 1 .779-.779h13.479c6.988 0 11.272 3.167 11.272 9.318v.184c0 3.91-2.572 8.408-7.29 8.819-1.734.154-9.274.396-9.274.396-3.8 0-3.821 2.874-2.564 4.975l4.872 7.717 13.75 20.527c.138.219.381.35.64.344h14.89a.777.777 0 0 0 .638-1.219l-14.559-21.275a.78.78 0 0 1 .361-1.154c7.798-3.211 13.074-9.723 13.074-19.843v-.184c0-6.151-1.955-11.273-5.593-14.911-4.284-4.285-10.715-6.614-19.005-6.614h-29.044a.77.77 0 0 0-.771.771v63.673c0 .428.345.775.771.779h12.803a.779.779 0 0 0 .771-.779v-20.115m73.983-5.599h24.172a.778.778 0 0 0 .734-.559l.118-11.215a.773.773 0 0 0-.736-.992h-24.289a.78.78 0 0 1-.779-.735v-11.714c0-.43.35-.779.779-.779h33.167a.778.778 0 0 0 .734-.588v-11.178a.778.778 0 0 0-.734-.962h-47.424a.771.771 0 0 0-.772.771v63.674c0 .426.345.773.772.777h48.107c.43 0 .778-.348.778-.777v-11.252a.77.77 0 0 0-.778-.734h-33.851a.78.78 0 0 1-.779-.779v-12.178a.783.783 0 0 1 .781-.78zm78.371-12.575c-11.273-2.888-14.066-4.292-14.066-8.576v-.184c0-3.167 2.889-5.688 8.386-5.688 5.291 0 10.759 2.249 16.322 5.997a.77.77 0 0 0 1.065-.191l6.614-9.554a.786.786 0 0 0-.161-1.065 37.797 37.797 0 0 0-23.635-7.856c-13.324 0-22.826 7.827-22.826 19.659v.191c0 12.949 8.48 16.579 21.613 19.938 10.906 2.793 13.141 4.658 13.141 8.289v.191c0 3.814-3.543 6.145-9.414 6.145-7.203 0-13.185-2.867-18.881-7.438a.732.732 0 0 0-1.072.104l-7.548 8.98a.795.795 0 0 0 .088 1.102 41.576 41.576 0 0 0 27.104 9.93c14.066 0 23.944-7.27 23.944-20.227v-.184c.015-11.368-7.445-16.086-20.674-19.563zm76.872-25.406v24.252a.772.772 0 0 1-.764.779h-24.921a.772.772 0 0 1-.772-.772v-24.259a.78.78 0 0 0-.778-.779h-12.795a.779.779 0 0 0-.779.779v63.666a.787.787 0 0 0 .779.779h12.802a.787.787 0 0 0 .779-.779v-24.627a.772.772 0 0 1 .765-.779h24.913a.772.772 0 0 1 .779.764v24.643c0 .43.349.779.778.779h12.795a.787.787 0 0 0 .779-.779v-63.666a.78.78 0 0 0-.779-.779h-12.802a.772.772 0 0 0-.779.778z" fill="#3d4549"/><path d="M159.815 363.078h-49.239c-29.551 0-53.51 20.578-53.51 50.128v34.74c21.57-44.095 73.999-75.079 102.749-84.868z" fill-rule="evenodd" fill="#54b14c"/><path d="M67.223 473.8h43.639c29.553 0 53.509-23.957 53.509-53.509v-54.655c-45.557 25.295-76.732 64.672-97.148 108.164z" fill="#4c9047" fill-rule="evenodd"/></svg>