<?xml version="1.0" standalone="no"?>
<!DOCTYPE svg PUBLIC "-//W3C//DTD SVG 20010904//EN"
 "http://www.w3.org/TR/2001/REC-SVG-20010904/DTD/svg10.dtd">
<svg version="1.0" xmlns="http://www.w3.org/2000/svg"
 width="650.000000pt" height="650.000000pt" viewBox="0 0 650.000000 650.000000"
 preserveAspectRatio="xMidYMid meet">
<metadata>
Created by potrace 1.11, written by Peter Selinger 2001-2013
</metadata>
<g transform="translate(0.000000,650.000000) scale(0.100000,-0.100000)"
fill="#000000" stroke="none">
<path d="M3187 5924 c-1 -1 -54 -5 -117 -8 -155 -9 -167 -11 -325 -36 -96 -16
-114 -20 -220 -46 -216 -55 -386 -119 -582 -220 -111 -58 -281 -158 -293 -173
-3 -4 -34 -27 -70 -53 -131 -92 -309 -262 -422 -403 -81 -100 -222 -305 -211
-305 3 0 -1 -8 -10 -17 -16 -19 -111 -207 -123 -245 -3 -13 -15 -41 -24 -63
-67 -150 -135 -443 -157 -670 -4 -47 -11 -1915 -6 -1915 5 0 63 116 63 127 0
7 4 13 9 13 5 0 13 9 16 20 4 12 29 58 56 104 27 46 49 89 49 95 0 6 5 11 10
11 6 0 10 4 10 10 0 5 20 41 45 79 25 38 45 74 45 79 0 6 3 12 8 14 4 2 38 50
76 108 38 58 73 107 78 108 4 2 8 8 8 13 0 5 23 40 50 77 99 132 225 295 248
321 13 14 35 42 50 61 15 19 34 42 42 50 8 9 40 45 70 80 30 36 78 89 106 120
29 30 66 71 84 90 135 147 573 571 621 601 5 3 36 28 67 56 109 97 287 243
392 323 18 14 38 30 44 35 6 6 58 45 116 88 58 43 113 84 123 92 9 8 20 15 23
15 3 0 11 6 19 13 7 6 39 30 71 52 31 22 76 54 99 71 23 18 53 38 66 44 13 7
26 16 29 19 10 13 505 331 515 331 2 0 39 22 82 49 43 26 98 58 123 71 25 12
47 26 50 29 3 4 34 22 70 40 36 19 81 43 100 54 97 55 390 204 495 253 22 10
43 22 46 27 3 5 8 8 10 7 6 -2 44 13 112 44 188 87 589 246 618 246 7 0 9 3 5
7 -5 5 -2453 12 -2459 7z"/>
<path d="M5835 5767 c-22 -12 -41 -25 -43 -29 -2 -5 -8 -8 -12 -8 -10 0 -303
-174 -407 -242 -23 -16 -46 -28 -51 -28 -6 0 -12 -3 -14 -7 -3 -8 -113 -84
-132 -92 -63 -26 -793 -572 -886 -661 -9 -8 -38 -33 -65 -55 -27 -22 -61 -51
-76 -65 -15 -14 -40 -36 -56 -49 -232 -197 -720 -678 -923 -911 -8 -9 -43 -48
-76 -86 -34 -38 -74 -85 -90 -104 -16 -19 -31 -37 -34 -40 -5 -5 -99 -117
-160 -190 -42 -51 -258 -327 -282 -361 -9 -13 -24 -33 -33 -44 -57 -73 -212
-291 -309 -435 -28 -41 -54 -76 -58 -78 -5 -2 -8 -10 -8 -18 0 -8 -4 -14 -10
-14 -5 0 -10 -4 -10 -9 0 -4 -19 -37 -43 -72 -68 -103 -124 -193 -125 -203 0
-5 -4 -12 -9 -15 -8 -6 -43 -55 -53 -76 -3 -5 -48 -82 -101 -170 -53 -88 -124
-212 -159 -275 -35 -63 -66 -117 -69 -120 -17 -15 -412 -801 -409 -812 3 -8
2175 -12 2303 -4 63 4 171 16 210 23 17 3 41 6 55 8 50 6 235 47 253 56 9 6
17 7 17 4 0 -3 16 1 35 9 19 8 35 12 35 9 0 -3 7 0 15 7 8 7 15 10 15 6 0 -4
13 0 30 9 16 8 33 16 37 16 23 4 140 49 215 83 32 15 60 25 62 24 2 -2 12 4
22 12 11 8 42 26 69 40 28 14 52 28 53 33 2 4 8 7 13 7 9 0 170 98 179 109 3
3 25 20 50 36 25 16 47 32 50 36 3 3 39 32 80 64 85 68 274 253 340 335 25 30
47 57 51 60 3 3 35 48 72 100 37 52 71 100 76 106 39 48 196 351 227 437 7 20
20 52 28 70 11 24 52 148 61 187 1 3 5 12 8 20 7 18 45 178 52 223 3 18 7 43
10 57 3 14 8 48 11 75 4 28 9 64 12 80 9 49 13 2955 5 2955 -4 0 -26 -10 -48
-23z"/>
</g>
</svg>
