<svg width="21" height="17" xmlns="http://www.w3.org/2000/svg"><path d="M18.152 4.438c.026.104.039.273.039.507 0 1.875-.456 3.685-1.367 5.43-.938 1.849-2.253 3.32-3.946 4.414-1.848 1.224-3.97 1.836-6.367 1.836-2.291 0-4.388-.612-6.289-1.836.287.026.612.04.977.04 1.9 0 3.607-.587 5.117-1.759-.911 0-1.712-.267-2.402-.8a4.08 4.08 0 0 1-1.426-2.012c.26.026.508.039.742.039.365 0 .73-.04 1.094-.117A4.133 4.133 0 0 1 1.98 8.734a3.932 3.932 0 0 1-.937-2.578v-.078a3.85 3.85 0 0 0 1.835.547A4.55 4.55 0 0 1 1.55 5.141a3.94 3.94 0 0 1-.507-1.973c0-.716.195-1.4.585-2.05a11.31 11.31 0 0 0 3.73 3.046 11.354 11.354 0 0 0 4.708 1.25 5.694 5.694 0 0 1-.078-.937c0-.73.182-1.413.547-2.051.364-.638.86-1.14 1.484-1.504A3.962 3.962 0 0 1 14.05.375c.6 0 1.153.117 1.66.352a4.64 4.64 0 0 1 1.348.937 8.345 8.345 0 0 0 2.617-.976c-.312.963-.911 1.718-1.797 2.265a8.81 8.81 0 0 0 2.344-.664 9.016 9.016 0 0 1-2.07 2.149z" fill="#6a738d" fill-rule="evenodd"/></svg>