<svg width="1280" height="725" xmlns="http://www.w3.org/2000/svg" preserveAspectRatio="xMidYMid meet">

 <g>
  <title>background</title>
  <rect fill="none" id="canvas_background" height="602" width="802" y="-1" x="-1"/>
 </g>
 <g>
  <title>Layer 1</title>
  <g id="svg_1" fill="#000000" transform="translate(0,725) scale(0.10000000149011612,-0.10000000149011612) ">
   <path fill="#fcd327" id="svg_2" d="m5,7188c-3,-13 -4,-1625 -3,-3582c3,-3273 4,-3560 19,-3569c12,-8 195,21 680,106c365,65 882,156 1149,203c1372,241 4415,776 5288,929c1562,275 2887,508 4062,715c597,105 1199,211 1337,235c139,25 255,45 258,45c3,0 5,778 5,1729c0,1530 -2,1731 -15,1745c-19,18 15,13 -625,86c-934,106 -3070,349 -3245,370c-93,11 -665,76 -1270,145c-605,69 -1275,145 -1490,170c-214,24 -1042,119 -1840,210c-1802,206 -2360,269 -3413,390c-459,52 -847,95 -863,95c-21,0 -30,-6 -34,-22z"/>
  </g>
 </g>
</svg>