<svg xmlns="http://www.w3.org/2000/svg" viewBox="0 0 113 113"><circle cx="56.5" cy="56.5" r="54.5" opacity=".6" fill="#00957a" fill-opacity=".7" stroke="#fff" stroke-width="4"/><path d="M22.2 60h-2.8v3h-1.7v-9.8h4c1.2 0 2.2.3 2.9.9s1 1.4 1 2.5c0 .8-.2 1.4-.5 2-.4.5-.9.9-1.5 1.2l2.2 3.3H24L22.2 60zm1.4-1.9c.4-.3.6-.8.6-1.5 0-.6-.2-1.1-.6-1.4s-1-.5-1.8-.5h-2.3v3.9h2.3c.8 0 1.3-.2 1.8-.5zm5.7-3.4v2.7h4.8v1.5h-4.8v2.7h5.5V63h-7.2v-9.8h7v1.5h-5.3zm10.8 0V63h-1.7v-8.3h-3.1v-1.5h7.9v1.5h-3.1zm5.8 0v2.7h4.8v1.5h-4.8v2.7h5.5V63h-7.2v-9.8h7v1.5h-5.3zM60 63l-5.2-7v7h-1.7v-9.8h1.6l5.2 7v-7h1.6V63H60zm7.5-8.3V63h-1.7v-8.3h-3.1v-1.5h7.9v1.5h-3.1zm4.2 8.3v-9.8h1.7V63h-1.7zm11-9.2c.8.4 1.4 1 1.9 1.8s.7 1.6.7 2.5c0 .9-.2 1.8-.7 2.5-.5.8-1.1 1.4-1.9 1.8-.8.4-1.7.7-2.6.7-1 0-1.8-.2-2.6-.7s-1.4-1-1.9-1.8-.7-1.6-.7-2.5.2-1.8.7-2.5c.5-.7 1.1-1.3 1.9-1.8.8-.4 1.7-.7 2.6-.7.9.1 1.8.3 2.6.7zm-4.4 1.3c-.5.3-1 .7-1.3 1.3-.3.5-.5 1.1-.5 1.7s.2 1.2.5 1.8c.3.5.8 1 1.3 1.3.5.3 1.1.5 1.8.5.6 0 1.2-.2 1.8-.5.5-.3 1-.7 1.3-1.3.3-.5.5-1.1.5-1.8s-.2-1.2-.5-1.7-.7-.9-1.3-1.3c-.5-.3-1.1-.5-1.8-.5s-1.3.2-1.8.5zM93.5 63l-5.2-7v7h-1.7v-9.8h1.6l5.2 7v-7H95V63h-1.5z" fill="#fff"/><g fill="none" stroke="#fff" stroke-width="2.5"><path d="M62 32l-5.5-6-5.5 6"/><path d="M56.5 27.5v13" stroke-linecap="square"/></g></svg>