<svg xmlns="http://www.w3.org/2000/svg" viewBox="0 0 123 123"><circle cx="61.5" cy="61.5" r="59.5" opacity=".6" fill="#00957a" fill-opacity=".7" stroke="#fff" stroke-width="4"/><path d="M22.6 58.6c.7.3 1.2.6 1.7 1.1l-1 1.2c-.4-.4-.8-.7-1.3-.9-.5-.2-1-.3-1.5-.3-.6 0-1.2.2-1.8.5-.5.3-1 .7-1.3 1.2s-.5 1.1-.5 1.7.2 1.2.5 1.7.7.9 1.3 1.3c.5.3 1.1.5 1.8.5.5 0 1-.1 1.4-.3s.9-.5 1.3-.9l1 1.1c-.5.5-1.1.9-1.8 1.2s-1.3.4-2 .4c-.9 0-1.8-.2-2.6-.7s-1.4-1-1.8-1.8-.7-1.6-.7-2.5c0-.9.2-1.7.7-2.5.5-.7 1.1-1.3 1.9-1.8.8-.4 1.7-.7 2.6-.7.7.1 1.4.2 2.1.5zm9.9.2c.8.4 1.4 1 1.9 1.8s.7 1.6.7 2.5c0 .9-.2 1.8-.7 2.5s-1.1 1.4-1.9 1.8-1.7.7-2.6.7-1.8-.2-2.6-.7-1.4-1-1.9-1.8-.7-1.6-.7-2.5.2-1.8.7-2.5c.5-.7 1.1-1.3 1.9-1.8.8-.4 1.7-.7 2.6-.7s1.8.3 2.6.7zm-4.4 1.3c-.5.3-1 .7-1.3 1.3-.3.5-.5 1.1-.5 1.7s.2 1.2.5 1.8.8 1 1.3 1.3c.5.3 1.1.5 1.8.5s1.2-.2 1.8-.5c.5-.3 1-.7 1.3-1.3s.5-1.1.5-1.8-.2-1.2-.5-1.7-.7-.9-1.3-1.3-1.1-.5-1.8-.5-1.3.2-1.8.5zM43.3 68l-5.2-7v7h-1.7v-9.8H38l5.2 7v-7H45V68h-1.7zm6.6 0L46 58.2h1.8l3 8 3-8h1.7l-4 9.8h-1.6zm8.4-8.3v2.7H63v1.5h-4.8v2.7h5.5V68h-7.2v-9.8h7v1.5h-5.2zM69.9 65h-2.8v3h-1.7v-9.8h4c1.2 0 2.2.3 2.9.9.7.6 1 1.4 1 2.5 0 .8-.2 1.4-.5 2-.4.5-.9.9-1.5 1.2l2.2 3.3h-1.9L69.9 65zm1.3-1.9c.4-.3.6-.8.6-1.5 0-.6-.2-1.1-.6-1.4s-1-.5-1.8-.5h-2.3v3.9h2.3c.8 0 1.4-.2 1.8-.5zm9.1-4.7c.6.2 1.1.4 1.6.7l-.7 1.5c-.5-.3-1-.5-1.5-.7-.5-.2-1-.2-1.4-.2-.5 0-.9.1-1.2.3-.3.2-.4.4-.4.8 0 .3.1.5.3.7s.4.4.7.5.7.3 1.2.4c.7.2 1.2.4 1.6.6s.8.5 1.1.9.4.9.4 1.5-.2 1.1-.5 1.5c-.3.4-.8.8-1.3 1-.6.2-1.2.3-1.9.3s-1.5-.1-2.2-.4c-.7-.3-1.3-.7-1.8-1.1l.7-1.4c.5.5 1 .8 1.6 1.1.6.2 1.2.4 1.7.4.6 0 1-.1 1.3-.3s.5-.5.5-.9c0-.3-.1-.5-.3-.7s-.4-.3-.7-.5c-.3-.1-.7-.2-1.2-.4-.7-.2-1.2-.4-1.6-.6-.4-.2-.8-.5-1.1-.8-.3-.4-.4-.8-.4-1.5 0-.6.1-1 .4-1.4.3-.4.7-.7 1.3-1 .5-.2 1.2-.3 1.9-.3.7-.3 1.3-.2 1.9 0zm3.4 9.6v-9.8h1.7V68h-1.7zm10.9-9.2c.8.4 1.4 1 1.9 1.8s.7 1.6.7 2.5c0 .9-.2 1.8-.7 2.5-.5.8-1.1 1.4-1.9 1.8-.8.4-1.7.7-2.6.7-1 0-1.8-.2-2.6-.7s-1.4-1-1.9-1.8-.7-1.6-.7-2.5.2-1.8.7-2.5c.5-.7 1.1-1.3 1.9-1.8.8-.4 1.7-.7 2.6-.7.9.1 1.8.3 2.6.7zm-4.4 1.3c-.5.3-1 .7-1.3 1.3-.3.5-.5 1.1-.5 1.7s.2 1.2.5 1.8c.3.5.8 1 1.3 1.3.5.3 1.1.5 1.8.5.6 0 1.2-.2 1.8-.5.5-.3 1-.7 1.3-1.3.3-.5.5-1.1.5-1.8s-.2-1.2-.5-1.7-.7-.9-1.3-1.3c-.5-.3-1.1-.5-1.8-.5-.6 0-1.2.2-1.8.5zm15.3 7.9l-5.2-7v7h-1.7v-9.8h1.6l5.2 7v-7h1.6V68h-1.5z" fill="#fff"/><path fill="none" stroke="#fff" stroke-width="2.5" d="M68 39l-5.5-6-5.5 6"/><path d="M62.5 34.5v13" fill="none" stroke="#fff" stroke-width="2.5" stroke-linecap="square"/></svg>