<svg width="18" height="19" xmlns="http://www.w3.org/2000/svg"><path d="M17.972 2.625v13.75c0 .52-.182.964-.547 1.328a1.808 1.808 0 0 1-1.328.547h-3.32v-6.914h2.344l.351-2.656h-2.695V7c0-.417.078-.73.234-.937.209-.235.56-.352 1.055-.352h1.406V3.367c-.547-.078-1.224-.117-2.031-.117-1.042 0-1.869.306-2.48.918-.612.612-.918 1.465-.918 2.559V8.68H7.66v2.656h2.383v6.914H2.347c-.52 0-.963-.182-1.328-.547a1.808 1.808 0 0 1-.547-1.328V2.625c0-.52.183-.964.547-1.328A1.808 1.808 0 0 1 2.347.75h13.75c.521 0 .964.182 1.328.547.365.364.547.807.547 1.328z" fill="#6a738d" fill-rule="evenodd"/></svg>