<svg xmlns="http://www.w3.org/2000/svg" viewBox="0 0 130 130"><circle cx="65" cy="65" r="63" opacity=".6" fill="#00957a" fill-opacity=".7" stroke="#fff" stroke-width="4"/><path d="M17.9 61.7v2.7h4.8v1.5h-4.8v2.7h5.5V70h-7.2v-9.8h7v1.5h-5.3zM32 70l-5.2-7v7h-1.7v-9.8h1.6l5.2 7v-7h1.6V70H32zm12.1-4.8v3.6c-.5.4-1.1.7-1.8.9s-1.4.3-2 .3c-1 0-1.8-.2-2.6-.7s-1.4-1-1.9-1.8-.7-1.6-.7-2.5c0-.9.2-1.8.7-2.5.5-.7 1.1-1.3 1.9-1.8.8-.4 1.7-.7 2.7-.7.7 0 1.4.1 2 .4.7.2 1.2.6 1.7 1l-.9 1.2c-.4-.4-.8-.6-1.3-.8s-1-.3-1.5-.3c-.7 0-1.3.2-1.8.5s-1 .7-1.3 1.3-.5 1.1-.5 1.8c0 .6.2 1.2.5 1.8s.8 1 1.3 1.3c.5.3 1.2.5 1.8.5.4 0 .7-.1 1.1-.2.4-.1.8-.3 1.1-.5v-2.7h1.5zm3.4 2.6l-1 2.2h-1.7l4.3-9.8h1.7l4.3 9.8h-1.8l-.9-2.2h-4.9zM50 62l-1.9 4.4h3.7L50 62zm14 3.2v3.6c-.5.4-1.1.7-1.8.9s-1.4.3-2 .3c-1 0-1.8-.2-2.6-.7s-1.4-1-1.9-1.8-.7-1.6-.7-2.5c0-.9.2-1.8.7-2.5.5-.7 1.1-1.3 1.9-1.8.8-.4 1.7-.7 2.7-.7.7 0 1.4.1 2 .4.7.2 1.2.6 1.7 1l-.9 1.2c-.4-.4-.8-.6-1.3-.8s-1-.3-1.5-.3c-.7 0-1.3.2-1.8.5s-1 .7-1.3 1.3-.5 1.1-.5 1.8c0 .6.2 1.2.5 1.8s.8 1 1.3 1.3c.5.3 1.2.5 1.8.5.4 0 .7-.1 1.1-.2.4-.1.8-.3 1.1-.5v-2.7H64zm3.7-3.5v2.7h4.8v1.5h-4.8v2.7h5.5V70H66v-9.8h7v1.5h-5.3zm16 8.3v-7.3L80.6 69h-1.1l-3.1-6.3V70h-1.6v-9.8h2l3.2 6.5 3.2-6.5h1.9V70h-1.4zm5.5-8.3v2.7H94v1.5h-4.8v2.7h5.5V70h-7.2v-9.8h7v1.5h-5.3zm14.1 8.3l-5.2-7v7h-1.7v-9.8H98l5.2 7v-7h1.6V70h-1.5zm7.5-8.3V70h-1.7v-8.3H106v-1.5h7.9v1.5h-3.1z" fill="#fff"/><path fill="none" stroke="#fff" stroke-width="2.5" d="M70 39l-5.5-6-5.5 6"/><path d="M64.5 34.5v13" fill="none" stroke="#fff" stroke-width="2.5" stroke-linecap="square"/></svg>