<svg xmlns="http://www.w3.org/2000/svg" viewBox="0 0 91 91"><circle cx="45.5" cy="45.5" r="43.5" opacity=".6" fill="#00957a" fill-opacity=".7" stroke="#fff" stroke-width="4"/><path d="M13.1 43.9v2.3h4.1v1.3h-4.1v2.3h4.7V51h-6.1v-8.4h5.9v1.3h-4.5zm7.8 0v2.4h3.8v1.3h-3.8V51h-1.4v-8.4h5.6v1.3h-4.2zm6.8 0v2.4h3.8v1.3h-3.8V51h-1.4v-8.4h5.6v1.3h-4.2zm5.4 7.1v-8.4h1.4V51h-1.4zm9-8.1c.6.2 1 .5 1.4 1l-.8 1c-.3-.3-.7-.6-1.1-.8-.4-.2-.8-.3-1.3-.3s-1 .1-1.5.4-.8.6-1.1 1.1c-.3.5-.4 1-.4 1.5s.1 1 .4 1.5c.3.5.6.8 1.1 1.1s1 .4 1.5.4c.4 0 .8-.1 1.2-.3.4-.2.8-.4 1.1-.7l.8.9c-.4.4-.9.8-1.5 1s-1.1.4-1.7.4c-.8 0-1.5-.2-2.2-.6-.7-.4-1.2-.9-1.6-1.5s-.4-1.4-.4-2.2c0-.8.2-1.5.6-2.1s.9-1.2 1.6-1.5c.7-.4 1.4-.6 2.2-.6.5 0 1.1.1 1.7.3zm2.8 8.1v-8.4h1.4V51h-1.4zm5-7.1v2.3H54v1.3h-4.1v2.3h4.7V51h-6.1v-8.4h5.9v1.3h-4.5zM62.1 51l-4.4-6v6h-1.4v-8.4h1.4l4.5 6v-6h1.4V51h-1.5zm8.9-8.1c.6.2 1 .5 1.4 1l-.8 1c-.3-.3-.7-.6-1.1-.8s-.8-.3-1.3-.3-1 .1-1.5.4-.8.6-1.1 1.1c-.3.5-.4 1-.4 1.5s.1 1 .4 1.5c.3.5.6.8 1.1 1.1s1 .4 1.5.4c.4 0 .8-.1 1.2-.3s.8-.4 1.1-.7l.8.9c-.4.4-.9.8-1.5 1-.6.2-1.1.4-1.7.4-.8 0-1.5-.2-2.2-.6-.7-.4-1.2-.9-1.6-1.5-.4-.7-.6-1.4-.6-2.2 0-.8.2-1.5.6-2.1.4-.6.9-1.2 1.6-1.5.7-.4 1.4-.6 2.2-.6.8 0 1.4.1 1.9.3zm6.3 8.1h-1.4v-2.7l-3.1-5.7h1.4l2.4 4.1 2.3-4.1h1.4l-3.1 5.6V51z" fill="#fff"/><path fill="none" stroke="#fff" stroke-width="2.5" d="M51 23l-5.5-6-5.5 6"/><path d="M45.5 18.5v13" fill="none" stroke="#fff" stroke-width="2.5" stroke-linecap="square"/></svg>