<svg width="23" height="17" xmlns="http://www.w3.org/2000/svg"><path d="M22.506 3.266c.21.748.36 1.901.449 3.459L23 8.836c0 .629-.015 1.333-.045 2.111-.09 1.558-.24 2.71-.45 3.46-.119.508-.359.943-.718 1.302-.36.36-.794.599-1.303.719-.748.21-2.47.36-5.166.449l-3.818.045-3.818-.045c-2.696-.09-4.418-.24-5.166-.45-.51-.12-.944-.359-1.303-.718a2.668 2.668 0 0 1-.719-1.303c-.21-.748-.36-1.901-.45-3.459L0 8.836c0-.629.015-1.333.045-2.111.09-1.558.24-2.71.45-3.46.119-.479.359-.905.718-1.28.36-.374.794-.621 1.303-.74.748-.21 2.47-.36 5.166-.45L11.5.75l3.818.045c2.696.09 4.418.24 5.166.45.51.119.944.366 1.303.74.36.375.599.801.719 1.28zM9.164 12.25l5.975-3.414-5.975-3.414v6.828z" fill="#6a738d" fill-rule="evenodd"/></svg>
